# xmcd CD database file
#
# Track frame offsets:
#	150
#	12704
#	36467
#	56355
#	74237
#	93679
#	114287
#	131666
#	157290
#	176929
#	192453
#	208292
#	230979
#	251655
#	272447
#	289773
#	303708
#	322046
#
# Disc length: 4597 seconds
#
# Revision: 1
# Processed by: cddbd v1.5.2PL0 Copyright (c) Steve Scherf et al.
# Submitted via: CDex 1.70beta2
#
DISCID=3011f312
DTITLE=Various Artist - Night Café  CD1
DYEAR=2009
DGENRE=NewAge
TTITLE0=Agneta Fältskog - Fly Me To The Moon
TTITLE1=Keb' Mo' - Isn't She Lovely
TTITLE2=Peter Cincotti - Man On A Mission
TTITLE3=Nils Landgren and Joe Sample - One Day I'll Fly Away
TTITLE4=Matt Bianco - Hifi Bossanova
TTITLE5=Torsten Goods - 99
TTITLE6=Incognito - You Are Golden
TTITLE7=Nighthawks feat. Pat Appleton - Define The Day
TTITLE8=Ulita Knaus - Summer Green Eyes
TTITLE9=Viktoria Tolstoy - Little Pretty
TTITLE10=Chantelle Duncan - Moon and Stars Playground
TTITLE11=Michael Franks feat. Yellowjackets - Dragonfly Summer
TTITLE12=Kirk Whalum - When The Night Rolls In
TTITLE13=Paula Cole - Bethlehem
TTITLE14=San Glaser - Coming Home
TTITLE15=Nils Wülker feat. Silje Nergaard - Complete Me
TTITLE16=Gordon Haskell - Take My Breath Away
TTITLE17=Joel Harrison feat. Norah Jones - I Walk The Line
EXTD=YEAR: 2009
EXTT0=
EXTT1=
EXTT2=
EXTT3=
EXTT4=
EXTT5=
EXTT6=
EXTT7=
EXTT8=
EXTT9=
EXTT10=
EXTT11=
EXTT12=
EXTT13=
EXTT14=
EXTT15=
EXTT16=
EXTT17=
PLAYORDER=
